# xmcd CD database file
#
# Track frame offsets:
#	150
#	26455
#	41667
#	61465
#	76572
#	92282
#	106440
#	124417
#	139895
#	151765
#
# Disc length: 2195 seconds
#
# Revision: 1
# Processed by: cddbd v1.4PL0 Copyright (c) Steve Scherf et al.
# Submitted via: CDex 1.50
#
DISCID=7408910a
DTITLE=Cathedrals - Something Special
DYEAR=1982
DGENRE=Gospel
TTITLE0=Let Freedom Ring
TTITLE1=Step Into The Water
TTITLE2=Then Came The Morning
TTITLE3=I Don't Want To Live No More Without Jesus
TTITLE4=Going Home
TTITLE5=Turn Your Back
TTITLE6=Mexico
TTITLE7=Wade Right In
TTITLE8=We Shall Be Caught Up
TTITLE9=Jesus, We Just Want To Thank You
EXTD=YEAR: 1982
EXTT0=
EXTT1=
EXTT2=
EXTT3=
EXTT4=
EXTT5=
EXTT6=
EXTT7=
EXTT8=
EXTT9=
PLAYORDER=
